<svg xmlns="http://www.w3.org/2000/svg" viewBox="0 0 800 1000" width="800" height="1000" role="img">
  
  <defs>
    <radialGradient id="bg-archway" cx="50%" cy="38%" r="85%">
      <stop offset="0%" stop-color="#161310"/>
      <stop offset="60%" stop-color="#0b0b0a"/>
      <stop offset="100%" stop-color="#050504"/>
    </radialGradient>
    <radialGradient id="glow-archway" cx="50%" cy="42%" r="40%">
      <stop offset="0%" stop-color="#c9a227" stop-opacity="0.22"/>
      <stop offset="100%" stop-color="#c9a227" stop-opacity="0"/>
    </radialGradient>
    <filter id="grain-archway">
      <feTurbulence type="fractalNoise" baseFrequency="0.9" numOctaves="2" stitchTiles="stitch"/>
      <feColorMatrix type="saturate" values="0"/>
      <feComponentTransfer><feFuncA type="linear" slope="0.06"/></feComponentTransfer>
      <feComposite operator="over" in2="SourceGraphic"/>
    </filter>
  </defs>
  <rect width="800" height="1000" fill="url(#bg-archway)"/>
  <rect width="800" height="1000" fill="url(#glow-archway)"/>
  <g fill="none" stroke="#c9a227" stroke-width="2" opacity="0.95">
    <path d="M220 760 v-360 q180 -200 360 0 v360" />
    <path d="M280 760 v-330 q120 -150 240 0 v330" opacity="0.5"/>
    <line x1="160" y1="760" x2="640" y2="760"/>
    
  <g transform="translate(230 760) scale(1.2)">
    <ellipse cx="0" cy="0" rx="14" ry="5" fill="#c9a227" opacity="0.18" stroke="none"/>
    <rect x="-9" y="-70" width="18" height="70" rx="3"/>
    <line x1="0" y1="-70" x2="0" y2="-84"/>
    <path d="M0 -84 q12 -16 0 -34 q-12 18 0 34 z" fill="#c9a227" opacity="0.35"/>
    <path d="M0 -88 q7 -10 0 -22 q-7 12 0 22 z" fill="#e3c77b" opacity="0.7" stroke="none"/>
  </g>
    
  <g transform="translate(570 760) scale(1.2)">
    <ellipse cx="0" cy="0" rx="14" ry="5" fill="#c9a227" opacity="0.18" stroke="none"/>
    <rect x="-9" y="-70" width="18" height="70" rx="3"/>
    <line x1="0" y1="-70" x2="0" y2="-84"/>
    <path d="M0 -84 q12 -16 0 -34 q-12 18 0 34 z" fill="#c9a227" opacity="0.35"/>
    <path d="M0 -88 q7 -10 0 -22 q-7 12 0 22 z" fill="#e3c77b" opacity="0.7" stroke="none"/>
  </g>
  </g>
  <rect width="800" height="1000" filter="url(#grain-archway)" opacity="0.5"/>
  <g stroke="#e3c77b" stroke-width="2" opacity="0.55">
    <path d="M28 28 h34 M28 28 v34"/>
    <path d="M772 28 h-34 M772 28 v34"/>
    <path d="M28 972 h34 M28 972 v-34"/>
    <path d="M772 972 h-34 M772 972 v-34"/>
  </g>
</svg>