<svg xmlns="http://www.w3.org/2000/svg" viewBox="0 0 800 1000" width="800" height="1000" role="img">
  
  <defs>
    <radialGradient id="bg-chandelier" cx="50%" cy="38%" r="85%">
      <stop offset="0%" stop-color="#161310"/>
      <stop offset="60%" stop-color="#0b0b0a"/>
      <stop offset="100%" stop-color="#050504"/>
    </radialGradient>
    <radialGradient id="glow-chandelier" cx="50%" cy="42%" r="40%">
      <stop offset="0%" stop-color="#c9a227" stop-opacity="0.22"/>
      <stop offset="100%" stop-color="#c9a227" stop-opacity="0"/>
    </radialGradient>
    <filter id="grain-chandelier">
      <feTurbulence type="fractalNoise" baseFrequency="0.9" numOctaves="2" stitchTiles="stitch"/>
      <feColorMatrix type="saturate" values="0"/>
      <feComponentTransfer><feFuncA type="linear" slope="0.06"/></feComponentTransfer>
      <feComposite operator="over" in2="SourceGraphic"/>
    </filter>
  </defs>
  <rect width="800" height="1000" fill="url(#bg-chandelier)"/>
  <rect width="800" height="1000" fill="url(#glow-chandelier)"/>
  <g fill="none" stroke="#c9a227" stroke-width="2" opacity="0.95">
    <line x1="400" y1="80" x2="400" y2="240"/>
    <path d="M250 300 q150 -120 300 0" />
    <path d="M210 400 q190 -150 380 0" />
    <g>
      <line x1="210" y1="357" x2="210" y2="470"/><circle cx="210" cy="490" r="10" fill="#c9a227" opacity="0.25"/><line x1="300" y1="330" x2="300" y2="470"/><circle cx="300" cy="490" r="10" fill="#c9a227" opacity="0.25"/><line x1="400" y1="300" x2="400" y2="470"/><circle cx="400" cy="490" r="10" fill="#c9a227" opacity="0.25"/><line x1="500" y1="330" x2="500" y2="470"/><circle cx="500" cy="490" r="10" fill="#c9a227" opacity="0.25"/><line x1="590" y1="357" x2="590" y2="470"/><circle cx="590" cy="490" r="10" fill="#c9a227" opacity="0.25"/>
    </g>
    <circle cx="400" cy="260" r="20" fill="#c9a227" opacity="0.3"/>
  </g>
  <rect width="800" height="1000" filter="url(#grain-chandelier)" opacity="0.5"/>
  <g stroke="#e3c77b" stroke-width="2" opacity="0.55">
    <path d="M28 28 h34 M28 28 v34"/>
    <path d="M772 28 h-34 M772 28 v34"/>
    <path d="M28 972 h34 M28 972 v-34"/>
    <path d="M772 972 h-34 M772 972 v-34"/>
  </g>
</svg>