<svg xmlns="http://www.w3.org/2000/svg" viewBox="0 0 1100 800" width="1100" height="800" role="img">
  
  <defs>
    <radialGradient id="bg-guests" cx="50%" cy="38%" r="85%">
      <stop offset="0%" stop-color="#161310"/>
      <stop offset="60%" stop-color="#0b0b0a"/>
      <stop offset="100%" stop-color="#050504"/>
    </radialGradient>
    <radialGradient id="glow-guests" cx="50%" cy="42%" r="40%">
      <stop offset="0%" stop-color="#c9a227" stop-opacity="0.22"/>
      <stop offset="100%" stop-color="#c9a227" stop-opacity="0"/>
    </radialGradient>
    <filter id="grain-guests">
      <feTurbulence type="fractalNoise" baseFrequency="0.9" numOctaves="2" stitchTiles="stitch"/>
      <feColorMatrix type="saturate" values="0"/>
      <feComponentTransfer><feFuncA type="linear" slope="0.06"/></feComponentTransfer>
      <feComposite operator="over" in2="SourceGraphic"/>
    </filter>
  </defs>
  <rect width="1100" height="800" fill="url(#bg-guests)"/>
  <rect width="1100" height="800" fill="url(#glow-guests)"/>
  <g fill="none" stroke="#c9a227" stroke-width="2" opacity="0.95">
    
  <g transform="translate(330 620) scale(1.5)">
    <circle cx="0" cy="-86" r="16"/>
    <path d="M-26 0 q0 -64 26 -64 q26 0 26 64 z"/>
  </g>
    
  <g transform="translate(560 600) scale(1.8)">
    <circle cx="0" cy="-86" r="16"/>
    <path d="M-26 0 q0 -64 26 -64 q26 0 26 64 z"/>
  </g>
    
  <g transform="translate(790 625) scale(1.5)">
    <circle cx="0" cy="-86" r="16"/>
    <path d="M-26 0 q0 -64 26 -64 q26 0 26 64 z"/>
  </g>
    <path d="M140 660 h820" opacity="0.35"/>
  </g>
  <rect width="1100" height="800" filter="url(#grain-guests)" opacity="0.5"/>
  <g stroke="#e3c77b" stroke-width="2" opacity="0.55">
    <path d="M28 28 h34 M28 28 v34"/>
    <path d="M1072 28 h-34 M1072 28 v34"/>
    <path d="M28 772 h34 M28 772 v-34"/>
    <path d="M1072 772 h-34 M1072 772 v-34"/>
  </g>
</svg>