<svg xmlns="http://www.w3.org/2000/svg" viewBox="0 0 1100 800" width="1100" height="800" role="img">
  
  <defs>
    <radialGradient id="bg-quartet" cx="50%" cy="38%" r="85%">
      <stop offset="0%" stop-color="#161310"/>
      <stop offset="60%" stop-color="#0b0b0a"/>
      <stop offset="100%" stop-color="#050504"/>
    </radialGradient>
    <radialGradient id="glow-quartet" cx="50%" cy="42%" r="40%">
      <stop offset="0%" stop-color="#c9a227" stop-opacity="0.22"/>
      <stop offset="100%" stop-color="#c9a227" stop-opacity="0"/>
    </radialGradient>
    <filter id="grain-quartet">
      <feTurbulence type="fractalNoise" baseFrequency="0.9" numOctaves="2" stitchTiles="stitch"/>
      <feColorMatrix type="saturate" values="0"/>
      <feComponentTransfer><feFuncA type="linear" slope="0.06"/></feComponentTransfer>
      <feComposite operator="over" in2="SourceGraphic"/>
    </filter>
  </defs>
  <rect width="1100" height="800" fill="url(#bg-quartet)"/>
  <rect width="1100" height="800" fill="url(#glow-quartet)"/>
  <g fill="none" stroke="#c9a227" stroke-width="2" opacity="0.95">
    <g transform="translate(420 440) rotate(-24)">
      <path d="M0 -150 q-50 40 -40 120 q-40 30 -40 90 q0 60 60 60 q60 0 60 -60 q0 -60 -40 -90 q10 -80 -40 -120 z"/>
      <line x1="-6" y1="-150" x2="-6" y2="120"/>
      <line x1="6" y1="-150" x2="6" y2="120"/>
    </g>
    <g stroke-width="2.4">
      <path d="M760 240 q60 -30 60 40 v150" />
      <ellipse cx="752" cy="430" rx="22" ry="14"/>
      <path d="M880 300 q60 -30 60 40 v120" />
      <ellipse cx="872" cy="460" rx="20" ry="13"/>
    </g>
  </g>
  <rect width="1100" height="800" filter="url(#grain-quartet)" opacity="0.5"/>
  <g stroke="#e3c77b" stroke-width="2" opacity="0.55">
    <path d="M28 28 h34 M28 28 v34"/>
    <path d="M1072 28 h-34 M1072 28 v34"/>
    <path d="M28 772 h34 M28 772 v-34"/>
    <path d="M1072 772 h-34 M1072 772 v-34"/>
  </g>
</svg>