<svg xmlns="http://www.w3.org/2000/svg" viewBox="0 0 1100 800" width="1100" height="800" role="img">
  
  <defs>
    <radialGradient id="bg-toast" cx="50%" cy="38%" r="85%">
      <stop offset="0%" stop-color="#161310"/>
      <stop offset="60%" stop-color="#0b0b0a"/>
      <stop offset="100%" stop-color="#050504"/>
    </radialGradient>
    <radialGradient id="glow-toast" cx="50%" cy="42%" r="40%">
      <stop offset="0%" stop-color="#c9a227" stop-opacity="0.22"/>
      <stop offset="100%" stop-color="#c9a227" stop-opacity="0"/>
    </radialGradient>
    <filter id="grain-toast">
      <feTurbulence type="fractalNoise" baseFrequency="0.9" numOctaves="2" stitchTiles="stitch"/>
      <feColorMatrix type="saturate" values="0"/>
      <feComponentTransfer><feFuncA type="linear" slope="0.06"/></feComponentTransfer>
      <feComposite operator="over" in2="SourceGraphic"/>
    </filter>
  </defs>
  <rect width="1100" height="800" fill="url(#bg-toast)"/>
  <rect width="1100" height="800" fill="url(#glow-toast)"/>
  <g fill="none" stroke="#c9a227" stroke-width="2" opacity="0.95">
    
  <g transform="translate(470 470) rotate(-16)">
    <path d="M-16 -90 q16 40 0 70 q-16 -30 0 -70 z"/>
    <line x1="0" y1="-20" x2="0" y2="36"/>
    <line x1="-18" y1="40" x2="18" y2="40"/>
    <circle cx="-6" cy="-78" r="2.4" fill="#e3c77b" stroke="none"/>
    <circle cx="4" cy="-66" r="1.8" fill="#e3c77b" stroke="none"/>
    <circle cx="-2" cy="-54" r="1.5" fill="#e3c77b" stroke="none"/>
  </g>
    
  <g transform="translate(630 470) rotate(16)">
    <path d="M-16 -90 q16 40 0 70 q-16 -30 0 -70 z"/>
    <line x1="0" y1="-20" x2="0" y2="36"/>
    <line x1="-18" y1="40" x2="18" y2="40"/>
    <circle cx="-6" cy="-78" r="2.4" fill="#e3c77b" stroke="none"/>
    <circle cx="4" cy="-66" r="1.8" fill="#e3c77b" stroke="none"/>
    <circle cx="-2" cy="-54" r="1.5" fill="#e3c77b" stroke="none"/>
  </g>
    <path d="M180 560 h740" opacity="0.4"/>
  </g>
  <rect width="1100" height="800" filter="url(#grain-toast)" opacity="0.5"/>
  <g stroke="#e3c77b" stroke-width="2" opacity="0.55">
    <path d="M28 28 h34 M28 28 v34"/>
    <path d="M1072 28 h-34 M1072 28 v34"/>
    <path d="M28 772 h34 M28 772 v-34"/>
    <path d="M1072 772 h-34 M1072 772 v-34"/>
  </g>
</svg>